<svg xmlns="http://www.w3.org/2000/svg" width="1884" height="1884" viewBox="0 0 1884 1884" fill="none" id="syno-nsc-ext-gen3">
<path d="M1577.02 1141.5C1578.95 1147.65 1580.1 1154.19 1580.1 1160.92C1580.1 1195.33 1552.22 1223.01 1517.99 1223.01C1495.88 1223.01 1476.46 1211.47 1465.5 1193.98C1463.58 1190.52 1461.85 1187.06 1460.12 1183.6C1433.97 1129.97 1424.16 1070.19 1432.81 1008.49C1448.39 897.961 1538.76 804.157 1542.41 799.736C1549.53 791.086 1554.14 780.322 1555.49 768.212C1558.95 735.535 1535.11 706.125 1502.42 702.857C1487.42 701.32 1473.19 705.356 1461.85 713.429C1458.39 715.928 1455.12 718.619 1452.23 721.887L1452.04 722.079C1408.58 761.484 1373.2 808.578 1348.4 861.631C1328.98 903.151 1316.1 948.323 1311.1 995.801C1302.44 1079.42 1318.98 1160.34 1355.32 1231.66V1231.85C1358.21 1237.61 1361.28 1243.38 1364.55 1248.95C1364.55 1249.15 1364.74 1249.15 1364.74 1249.34C1378.01 1277.79 1383.97 1310.27 1380.51 1343.72C1377.43 1373.71 1367.05 1401.39 1351.28 1424.84C1328.98 1458.28 1295.91 1483.46 1257.45 1495.96C1234.18 1503.65 1208.99 1506.53 1183.04 1503.84C1133.43 1498.65 1090.55 1473.85 1061.71 1437.72C1061.71 1437.72 1061.71 1437.72 1061.71 1437.52C1052.48 1423.11 1043.82 1408.31 1035.56 1393.31C963.834 1262.79 929.992 1112.86 946.144 957.741C954.028 882.775 972.871 811.462 1001.33 745.146C1021.9 696.898 1047.67 651.15 1077.67 608.477L1077.86 608.285C1081.32 604.633 1084.2 600.404 1086.7 595.983C1090.36 589.255 1092.66 581.759 1093.63 573.685C1097.09 540.623 1073.05 510.829 1039.79 507.369C1019.21 505.255 999.791 513.713 987.485 528.321L987.293 528.514C985.754 530.244 984.408 532.166 983.062 534.28C982.87 534.472 982.87 534.665 982.678 534.857C948.836 581.374 919.609 631.159 895.574 683.828C858.655 764.752 834.236 852.405 824.621 944.863C809.623 1088.45 832.12 1228 884.614 1355.06C887.882 1363.13 891.344 1371.21 894.997 1379.09C903.457 1403.31 906.726 1429.83 904.034 1456.94C899.804 1496.73 883.268 1532.1 858.271 1559.58C836.927 1583.23 809.623 1600.91 778.858 1610.71L753.669 1616.48L750.593 1617.25C750.593 1617.25 750.593 1617.25 750.4 1617.25C735.787 1619.36 720.404 1619.75 705.022 1618.21C647.721 1612.25 599.458 1580.15 570.808 1535.17C570.616 1534.79 570.424 1534.4 570.231 1534.02C570.231 1534.02 570.039 1533.83 570.039 1533.63C563.309 1519.99 556.964 1505.95 551.003 1492.11C551.003 1492.11 551.003 1492.11 551.003 1491.92C550.811 1491.54 550.618 1490.96 550.426 1490.38C472.167 1310.66 438.133 1111.9 459.476 906.995C472.552 782.052 505.24 663.644 554.464 553.887C554.656 553.502 554.656 553.118 554.849 552.733C576 505.832 600.227 460.468 627.339 416.834C633.108 411.067 637.53 403.955 640.415 396.074C642.145 391.268 643.491 386.078 644.068 380.888C647.529 347.25 623.109 317.264 589.652 313.804C568.693 311.689 549.08 320.339 536.39 335.332C536.197 335.525 536.197 335.525 536.005 335.717C532.928 339.561 530.237 343.598 528.121 348.211C498.318 394.921 471.783 443.745 448.324 494.298C448.132 494.875 447.939 495.26 447.555 495.836C390.255 619.242 352.567 753.027 337.761 894.309C311.996 1142.46 360.451 1382.36 466.783 1595.14C467.745 1597.26 468.898 1599.18 469.86 1601.1C470.052 1601.49 470.244 1602.06 470.437 1602.45C471.783 1605.33 473.321 1608.02 474.667 1610.71C474.859 1611.1 475.051 1611.67 475.244 1612.06C478.32 1619.56 479.666 1627.82 479.282 1636.28C479.282 1637.43 479.089 1638.78 479.089 1639.93C478.897 1641.28 478.705 1642.43 478.512 1643.78C478.32 1645.12 478.128 1646.27 477.743 1647.62C477.551 1648.77 477.166 1649.93 476.782 1651.08C476.397 1652.23 476.013 1653.19 475.628 1654.16C470.052 1669.72 458.13 1682.22 443.132 1688.75C436.402 1691.64 429.096 1693.37 421.597 1693.75C420.828 1693.75 420.058 1693.75 419.289 1693.75C417.174 1693.75 415.059 1693.75 412.752 1693.56C395.062 1691.64 380.064 1682.41 370.257 1669.15C367.565 1663.96 364.681 1658.58 361.989 1653.19C361.604 1652.23 361.028 1651.46 360.643 1650.7C242.389 1417.92 187.781 1154.38 216.046 881.622C238.351 668.642 309.111 471.424 417.174 298.234C426.596 283.241 436.21 268.247 446.209 253.639C483.896 211.158 540.812 186.746 601.573 193.089C607.726 193.666 613.88 194.627 619.648 195.973L630.608 200.586H630.8L635.223 202.508L675.41 219.616L685.409 223.845C704.252 236.723 720.404 253.062 733.287 271.707C756.746 306.115 768.667 348.595 764.052 393.191C761.745 415.104 755.784 435.671 746.555 454.317C744.632 457.2 742.901 459.891 740.978 462.774C740.978 462.967 740.786 462.967 740.786 463.159C737.71 467.964 734.633 472.77 731.557 477.767C731.557 477.767 731.557 477.767 731.557 477.96C729.826 480.651 728.095 483.534 726.557 486.225C648.49 615.782 597.343 762.253 580.999 920.066C567.539 1049.81 578.307 1177.06 610.418 1297.59C610.418 1297.78 610.418 1297.97 610.611 1297.97C624.455 1349.87 641.953 1400.42 663.296 1449.63C663.488 1450.02 663.488 1450.21 663.681 1450.59C665.411 1459.63 669.257 1468.09 674.833 1475.2C684.64 1488.27 699.83 1497.5 717.328 1499.42C750.977 1502.88 780.973 1478.47 784.434 1445.02C785.203 1437.52 784.627 1430.03 782.704 1423.11C781.166 1416.96 778.474 1411 775.012 1405.61C754.63 1357.94 737.902 1308.74 725.404 1258.18C725.404 1257.99 725.211 1257.8 725.211 1257.6C699.445 1153.42 690.985 1044.05 702.522 932.56C720.404 761.1 783.665 604.441 880.191 471.616C880.191 471.616 880.191 471.616 880.191 471.424C885.767 463.735 891.536 456.047 897.304 448.55L897.497 448.358C934.799 406.069 991.331 381.85 1051.71 388.193C1069.59 390.115 1086.51 394.344 1102.28 401.072C1140.35 416.834 1171.31 445.09 1190.92 480.266C1208.42 511.598 1216.69 548.312 1212.65 586.564C1209.76 613.475 1201.3 638.464 1188.04 660.377C1188.04 660.377 1188.04 660.377 1188.04 660.569C1182.65 667.873 1177.65 675.178 1172.65 682.482L1172.46 682.674C1115.55 767.059 1078.43 864.707 1067.47 970.812C1059.59 1046.16 1065.55 1119.78 1083.24 1189.94C1083.43 1190.52 1083.63 1191.29 1083.63 1191.87C1097.28 1245.69 1118.04 1297.39 1144.96 1346.22C1147.27 1352.37 1150.54 1358.14 1154.77 1363.33C1164.39 1375.24 1178.61 1383.51 1195.15 1385.24C1228.22 1388.7 1257.64 1364.67 1261.1 1331.8C1262.26 1321.04 1260.33 1310.66 1256.3 1301.43C1256.3 1301.43 1256.3 1301.24 1256.1 1301.24C1254.57 1297.97 1252.84 1294.9 1250.91 1291.82C1250.72 1291.44 1250.53 1291.05 1250.34 1290.86C1226.11 1245.88 1208.23 1197.44 1197.46 1147.27C1197.27 1146.89 1197.27 1146.5 1197.27 1146.12C1186.31 1093.83 1183.04 1039.43 1188.81 983.883C1203.03 848.176 1268.22 729.192 1365.32 641.347L1365.51 641.155C1376.09 631.736 1386.86 622.509 1398.01 613.859C1431.08 592.138 1471.46 581.374 1513.96 585.795C1551.07 589.64 1584.33 604.633 1610.67 627.123C1640.86 652.688 1657.01 689.402 1670.09 727.654C1709.51 842.409 1571.06 902.574 1559.72 1021.94C1555.87 1062.5 1559.72 1100.18 1572.6 1134.01C1574.72 1135.93 1575.87 1138.62 1577.02 1141.5Z" fill="#6366F1"/>
<div xmlns="" id="syno-nsc-ext-comp-1008" class=" x-tip-invalid"><div xmlns="http://www.w3.org/2000/svg" class="x-tip-invalid-tl"><div class="x-tip-invalid-tr"><div class="x-tip-invalid-tc"><div xmlns="" class="x-tip-invalid-header x-unselectable" id="syno-nsc-ext-gen4"><span xmlns="http://www.w3.org/2000/svg" class="x-tip-invalid-header-text"/></div></div></div></div><div class="x-tip-invalid-bwrap" id="syno-nsc-ext-gen5"><div xmlns="http://www.w3.org/2000/svg" class="x-tip-invalid-ml"><div class="x-tip-invalid-mr"><div class="x-tip-invalid-mc" id="syno-nsc-ext-gen8"><div xmlns="" class="x-tip-invalid-body" id="syno-nsc-ext-gen6"/></div></div></div><div xmlns="http://www.w3.org/2000/svg" class="x-tip-invalid-bl" id="syno-nsc-ext-gen7"><div class="x-tip-invalid-br"><div class="x-tip-invalid-bc"/></div></div></div></div></svg>