<svg width="20" height="20" viewBox="0 0 20 20" fill="none" xmlns="http://www.w3.org/2000/svg">
<path d="M17.7105 7.31452C17.6827 7.18683 17.6092 7.079 17.5087 7.01674C17.4084 6.95486 17.2899 6.94437 17.1824 6.98794C16.2397 7.37008 14.7852 7.61598 13.1494 7.61598C12.7516 7.61598 12.3683 7.59846 11.9967 7.57088C11.8046 8.57258 11.4975 9.49235 11.1053 10.3024C11.1244 10.3015 11.1426 10.2979 11.1618 10.2979C11.6702 10.2979 12.0822 10.249 12.0822 10.6441C12.0822 11.0392 11.6701 11.7288 11.1618 11.7288C10.8657 11.7288 10.605 11.6182 10.4368 11.4494C9.92879 12.1771 9.33528 12.751 8.68164 13.1304C9.41859 15.9925 11.1416 18.0002 13.1494 18.0002C15.828 18.0002 17.9994 14.4272 17.9994 10.0197C17.9993 9.06898 17.8964 8.15919 17.7105 7.31452ZM15.0822 15.6699C15.0736 15.712 15.0465 15.7463 15.0108 15.7598C14.9751 15.7736 14.9358 15.7649 14.9071 15.7369C14.5293 15.3706 13.8866 15.1273 13.1494 15.1273C12.4121 15.1273 11.7694 15.3706 11.3916 15.7369C11.3629 15.7646 11.3236 15.7733 11.2879 15.7598C11.2523 15.746 11.2252 15.712 11.2166 15.6699C11.1853 15.5164 11.1661 15.3581 11.1661 15.1934C11.1661 13.9296 12.0541 12.9051 13.1494 12.9051C14.2448 12.9051 15.1327 13.9296 15.1327 15.1934C15.1326 15.3581 15.1134 15.5164 15.0822 15.6699ZM15.1368 11.7287C14.6285 11.7287 14.2165 11.0391 14.2165 10.6441C14.2165 10.249 14.6285 10.2979 15.1368 10.2979C15.6451 10.2979 16.0572 10.6182 16.0572 11.0133C16.0571 11.4084 15.6451 11.7287 15.1368 11.7287Z" fill="white"/>
<path d="M11.7 5.05812C11.7 4.10749 11.5971 3.19766 11.4112 2.35303C11.3833 2.22534 11.3099 2.11743 11.2094 2.05524C11.15 2.01861 11.0841 2 11.0177 2C10.9723 2 10.9268 2.00862 10.8831 2.02645C9.94037 2.40858 8.48592 2.65441 6.85003 2.65441C5.2141 2.65441 3.75965 2.40858 2.81695 2.02645C2.77347 2.00862 2.72816 2 2.68285 2C2.61647 2 2.55027 2.0188 2.49062 2.05555C2.39037 2.11774 2.31669 2.22561 2.28879 2.35303C2.10289 3.1977 2 4.10749 2 5.05812C2 9.4657 4.17135 13.0386 6.85003 13.0386C9.52863 13.0386 11.7 9.4657 11.7 5.05812ZM3.94217 6.04999C3.94217 5.65482 4.35418 5.33456 4.86252 5.33456C5.37082 5.33456 5.78283 6.02408 5.78283 6.41924C5.78283 6.81433 5.37082 6.76541 4.86252 6.76541C4.35418 6.76541 3.94217 6.44507 3.94217 6.04999ZM6.85003 11.5299C5.75466 11.5299 4.86671 10.5053 4.86671 9.24161C4.86671 9.07693 4.88595 8.91854 4.91719 8.76498C4.92578 8.723 4.9529 8.68902 4.98854 8.67514C5.02424 8.66164 5.06353 8.67034 5.0922 8.698C5.47003 9.06429 6.11274 9.30765 6.84999 9.30765C7.58724 9.30765 8.22996 9.06429 8.60775 8.698C8.63645 8.67002 8.67574 8.66136 8.71141 8.67514C8.74709 8.68871 8.77417 8.723 8.78276 8.76498C8.814 8.91854 8.83328 9.07693 8.83328 9.24161C8.83331 10.5053 7.94532 11.5299 6.85003 11.5299ZM7.91715 6.41924C7.91715 6.02408 8.32916 5.33456 8.8375 5.33456C9.34581 5.33456 9.75782 5.65482 9.75782 6.04999C9.75782 6.44507 9.34581 6.76541 8.8375 6.76541C8.32916 6.76541 7.91715 6.81433 7.91715 6.41924Z" fill="white"/>
</svg>