<svg width="20" height="20" viewBox="0 0 20 20" fill="none" xmlns="http://www.w3.org/2000/svg">
<path d="M11.1473 12.6304C11.0843 12.565 11.0045 12.516 10.9221 12.4752C10.7427 12.3865 10.5464 12.3327 10.3516 12.2842V13.7154C10.6678 13.6816 11.0309 13.5727 11.197 13.2929C11.2763 13.1592 11.292 12.9949 11.2597 12.8461C11.2422 12.7654 11.206 12.6914 11.1473 12.6304Z" fill="white"/>
<path d="M11.1953 13.2943C11.1961 13.2931 11.1965 13.2923 11.1973 13.291C11.1966 13.2921 11.196 13.2932 11.1953 13.2943Z" fill="white"/>
<path d="M8.86957 10.3412C8.8152 10.4165 8.78108 10.502 8.77167 10.5928C8.76225 10.6839 8.76754 10.7852 8.80404 10.871C8.83879 10.9527 8.91159 11.013 8.98674 11.0615C9.07106 11.1159 9.16379 11.1584 9.25824 11.1944C9.33748 11.2246 9.4266 11.2535 9.52268 11.2814V9.98633C9.27997 10.0354 9.01478 10.1402 8.86957 10.3412Z" fill="white"/>
<path d="M11.2032 13.2783C11.2013 13.2817 11.1993 13.2852 11.1973 13.2889C11.1996 13.2846 11.2014 13.2814 11.2032 13.2783Z" fill="white"/>
<path d="M11.2109 13.2806C11.2213 13.2614 11.2229 13.2598 11.2109 13.2806V13.2806Z" fill="white"/>
<path d="M10.8842 5.48134C12.1682 4.45887 13.0261 2.15541 12.4981 2.05466C11.7966 1.92074 10.2732 2.50795 9.53683 2.61141C8.49246 2.73094 7.355 1.53785 6.71652 2.20288C6.1974 2.74359 7.0887 4.70999 8.48316 5.56665C4.32285 7.50496 -1.52476 17.2354 8.6767 17.9415C22.7922 18.9184 15.724 7.37018 10.8842 5.48134ZM12.0964 13.1552C12.053 13.5346 11.8409 13.8777 11.5239 14.1105C11.1892 14.3565 10.7694 14.4708 10.3522 14.5029V14.922C10.3522 15.0342 10.3006 15.1427 10.212 15.2169C10.0903 15.319 9.91139 15.3442 9.76364 15.2797C9.61777 15.216 9.52193 15.0742 9.52193 14.922V14.4639C9.4504 14.451 9.37939 14.4357 9.30922 14.4175C8.91936 14.3159 8.55775 14.118 8.2936 13.8252C8.16202 13.6792 8.05475 13.5136 7.98056 13.3348C7.96118 13.2881 7.9439 13.2405 7.92877 13.1924C7.91507 13.1488 7.90093 13.1045 7.89605 13.0591C7.88782 12.983 7.90375 12.9053 7.9412 12.8374C8.01817 12.6979 8.18037 12.6136 8.34599 12.6276C8.50898 12.6413 8.65184 12.7485 8.70315 12.8958C8.71896 12.9411 8.72968 12.9876 8.74743 13.0325C8.76503 13.0771 8.78628 13.1204 8.81126 13.1617C8.86058 13.2429 8.92238 13.3179 8.99355 13.3829C9.14026 13.5169 9.32713 13.6039 9.52193 13.6558V12.0985C9.14102 12.005 8.74783 11.8843 8.43328 11.6525C8.28042 11.5397 8.1507 11.3997 8.06575 11.2339C7.97611 11.059 7.93898 10.8641 7.93747 10.6705C7.93592 10.4739 7.97532 10.2791 8.06182 10.1C8.14284 9.93229 8.25948 9.78173 8.4025 9.65692C8.70831 9.39011 9.11453 9.24128 9.52197 9.18662V9.15236V8.75151C9.52197 8.63939 9.57364 8.53089 9.66221 8.45664C9.78398 8.35458 9.96278 8.32935 10.1106 8.39388C10.2564 8.45755 10.3523 8.59933 10.3523 8.75151V9.15236V9.18424C10.4066 9.19072 10.4607 9.19848 10.5146 9.20774C10.9146 9.27637 11.306 9.43299 11.5986 9.70643C11.7372 9.83594 11.8506 9.99027 11.9304 10.1586C11.9527 10.2055 11.9722 10.2535 11.9891 10.3025C12.0048 10.3482 12.0206 10.3952 12.0281 10.4429C12.0401 10.519 12.0279 10.5976 11.9935 10.6672C11.9232 10.8098 11.7653 10.9006 11.5993 10.8939C11.4361 10.8871 11.2883 10.7864 11.2299 10.6419C11.2125 10.5989 11.2038 10.5533 11.186 10.5105C11.1681 10.4671 11.1449 10.4256 11.1182 10.3865C11.0662 10.3105 10.9989 10.2453 10.9221 10.1915C10.7557 10.0751 10.5538 10.0144 10.3522 9.98044V11.4707C10.5918 11.5251 10.8317 11.5844 11.0614 11.6702C11.4084 11.8 11.7373 11.9989 11.9268 12.3126C11.8974 12.2637 11.8688 12.2161 11.9278 12.3142C11.9857 12.4106 11.958 12.3647 11.929 12.3164C12.0797 12.5682 12.1292 12.8692 12.0964 13.1552Z" fill="white"/>
<path d="M11.1914 13.2998C11.1891 13.3039 11.1871 13.3075 11.1855 13.3103C11.1869 13.3079 11.1889 13.3043 11.1914 13.2998Z" fill="white"/>
</svg>
